<svg width="25" height="24" viewBox="0 0 25 24" fill="none" xmlns="http://www.w3.org/2000/svg">
<path fill-rule="evenodd" clip-rule="evenodd" d="M9.54194 2.43037C9.76283 2.93656 9.53155 3.52597 9.02536 3.74686C7.67796 4.33485 6.4951 5.24395 5.5802 6.39469C4.66531 7.54543 4.04623 8.90277 3.7771 10.348C3.50797 11.7933 3.59697 13.2825 4.03633 14.6854C4.4757 16.0883 5.25204 17.3623 6.29748 18.3959C7.34293 19.4294 8.62565 20.1912 10.0335 20.6145C11.4413 21.0378 12.9315 21.1098 14.3736 20.8242C15.8157 20.5385 17.1658 19.904 18.3061 18.976C19.4463 18.0481 20.3418 16.8549 20.9144 15.5009C21.1295 14.9922 21.7162 14.7542 22.2249 14.9693C22.7335 15.1844 22.9715 15.7711 22.7564 16.2798C22.0566 17.9347 20.9621 19.393 19.5685 20.5272C18.1749 21.6614 16.5247 22.437 14.7621 22.7861C12.9996 23.1351 11.1783 23.0472 9.4576 22.5298C7.7369 22.0124 6.16913 21.0814 4.89137 19.8181C3.6136 18.5549 2.66474 16.9978 2.12774 15.2831C1.59075 13.5685 1.48196 11.7483 1.8109 9.9819C2.13984 8.21546 2.89649 6.55649 4.01469 5.15003C5.1329 3.74357 6.57861 2.63245 8.22544 1.9138C8.73163 1.69291 9.32104 1.92418 9.54194 2.43037Z" fill="#F9A602"/>
<path fill-rule="evenodd" clip-rule="evenodd" d="M11.9179 1.29289C12.1054 1.10536 12.3598 1 12.625 1C14.0695 1 15.4999 1.28452 16.8345 1.83733C18.1691 2.39013 19.3817 3.20038 20.4032 4.22183C21.4246 5.24327 22.2349 6.4559 22.7877 7.79048C23.3405 9.12506 23.625 10.5555 23.625 12C23.625 12.5523 23.1773 13 22.625 13H12.625C12.0727 13 11.625 12.5523 11.625 12V2C11.625 1.73478 11.7304 1.48043 11.9179 1.29289ZM13.625 3.05573V11H21.5693C21.4755 10.1614 21.2641 9.33849 20.9399 8.55585C20.4876 7.46392 19.8247 6.47177 18.989 5.63604C18.1532 4.80031 17.1611 4.13738 16.0692 3.68508C15.2865 3.3609 14.4636 3.14948 13.625 3.05573Z" fill="#F9A602"/>
</svg>
