<svg width="25" height="24" viewBox="0 0 25 24" fill="none" xmlns="http://www.w3.org/2000/svg">
<path fill-rule="evenodd" clip-rule="evenodd" d="M11.875 4C8.00901 4 4.875 7.13401 4.875 11C4.875 14.866 8.00901 18 11.875 18C15.741 18 18.875 14.866 18.875 11C18.875 7.13401 15.741 4 11.875 4ZM2.875 11C2.875 6.02944 6.90444 2 11.875 2C16.8456 2 20.875 6.02944 20.875 11C20.875 15.9706 16.8456 20 11.875 20C6.90444 20 2.875 15.9706 2.875 11Z" fill="#484C52"/>
<path fill-rule="evenodd" clip-rule="evenodd" d="M16.8163 15.9433C17.2069 15.5528 17.84 15.5528 18.2305 15.9433L22.5805 20.2933C22.9711 20.6838 22.9711 21.317 22.5805 21.7075C22.19 22.098 21.5569 22.098 21.1663 21.7075L16.8163 17.3575C16.4258 16.967 16.4258 16.3338 16.8163 15.9433Z" fill="#484C52"/>
</svg>
