<svg width="26" height="18" viewBox="0 0 26 18" fill="none" xmlns="http://www.w3.org/2000/svg">
<path d="M1.85714 0.25H11.1429C11.5716 0.25 11.9812 0.415141 12.2821 0.706725C12.5826 0.998052 12.75 1.39148 12.75 1.8C12.75 2.20852 12.5826 2.60195 12.2821 2.89328C11.9812 3.18486 11.5716 3.35 11.1429 3.35H1.85714C1.42842 3.35 1.01878 3.18486 0.717938 2.89328C0.417363 2.60195 0.25 2.20852 0.25 1.8C0.25 1.39148 0.417363 0.998051 0.717938 0.706725C1.01878 0.415141 1.42842 0.25 1.85714 0.25ZM14.8571 14.65H24.1429C24.5716 14.65 24.9812 14.8151 25.2821 15.1067C25.5826 15.3981 25.75 15.7915 25.75 16.2C25.75 16.6085 25.5826 17.0019 25.2821 17.2933C24.9812 17.5849 24.5716 17.75 24.1429 17.75H14.8571C14.4284 17.75 14.0188 17.5849 13.7179 17.2933C13.4174 17.0019 13.25 16.6085 13.25 16.2C13.25 15.7915 13.4174 15.3981 13.7179 15.1067C14.0188 14.8151 14.4284 14.65 14.8571 14.65ZM1.85714 7.45H24.1429C24.5716 7.45 24.9812 7.61514 25.2821 7.90672C25.5826 8.19805 25.75 8.59148 25.75 9C25.75 9.40852 25.5826 9.80195 25.2821 10.0933C24.9812 10.3849 24.5716 10.55 24.1429 10.55H1.85714C1.42842 10.55 1.01878 10.3849 0.717938 10.0933C0.417363 9.80195 0.25 9.40852 0.25 9C0.25 8.59148 0.417363 8.19805 0.717938 7.90672C1.01878 7.61514 1.42842 7.45 1.85714 7.45Z" fill="#1D1D1D" stroke="white" stroke-width="0.5"/>
</svg>
